<?xml version="1.0" encoding="utf-8" standalone="no"?>
<!DOCTYPE svg PUBLIC "-//W3C//DTD SVG 1.1//EN"
  "http://www.w3.org/Graphics/SVG/1.1/DTD/svg11.dtd">
<svg xmlns:xlink="http://www.w3.org/1999/xlink" width="640pt" height="352pt" viewBox="0 0 640 352" xmlns="http://www.w3.org/2000/svg" version="1.1">
 <metadata>
  <rdf:RDF xmlns:dc="http://purl.org/dc/elements/1.1/" xmlns:cc="http://creativecommons.org/ns#" xmlns:rdf="http://www.w3.org/1999/02/22-rdf-syntax-ns#">
   <cc:Work>
    <dc:type rdf:resource="http://purl.org/dc/dcmitype/StillImage"/>
    <dc:date>2025-01-27T19:31:55.590214</dc:date>
    <dc:format>image/svg+xml</dc:format>
    <dc:creator>
     <cc:Agent>
      <dc:title>Matplotlib v3.10.0, https://matplotlib.org/</dc:title>
     </cc:Agent>
    </dc:creator>
   </cc:Work>
  </rdf:RDF>
 </metadata>
 <defs>
  <style type="text/css">*{stroke-linejoin: round; stroke-linecap: butt}</style>
 </defs>
 <g id="figure_1">
  <g id="patch_1">
   <path d="M 0 352 
L 640 352 
L 640 0 
L 0 0 
z
" style="fill: #ffffff"/>
  </g>
  <g id="axes_1">
   <g id="patch_2">
    <path d="M 80 308 
L 576 308 
L 576 290.4 
L 80 290.4 
z
" clip-path="url(#p3ba9682945)" style="fill-opacity: 0.05098"/>
   </g>
   <g id="patch_3">
    <path d="M 80 286 
L 576 286 
L 576 268.4 
L 80 268.4 
L 80 286 
z
" clip-path="url(#p3ba9682945)" style="fill: none"/>
   </g>
   <g id="patch_4">
    <path d="M 80 264 
L 576 264 
L 576 246.4 
L 80 246.4 
z
" clip-path="url(#p3ba9682945)" style="fill-opacity: 0.05098"/>
   </g>
   <g id="patch_5">
    <path d="M 80 242 
L 576 242 
L 576 224.4 
L 80 224.4 
L 80 242 
z
" clip-path="url(#p3ba9682945)" style="fill: none"/>
   </g>
   <g id="patch_6">
    <path d="M 80 220 
L 576 220 
L 576 202.4 
L 80 202.4 
z
" clip-path="url(#p3ba9682945)" style="fill-opacity: 0.05098"/>
   </g>
   <g id="matplotlib.axis_1"/>
   <g id="matplotlib.axis_2">
    <g id="ytick_1"/>
    <g id="ytick_2"/>
    <g id="ytick_3"/>
    <g id="ytick_4"/>
    <g id="ytick_5"/>
   </g>
  </g>
  <g id="axes_2">
   <g id="matplotlib.axis_3">
    <g id="ytick_6">
     <g id="line2d_1"/>
     <g id="text_1">
      <!-- MEDICAL -->
      <g transform="translate(193.769761 303.852578) scale(0.13 -0.13)">
       <defs>
        <path id="ArialMT-4d" d="M 475 0 
L 475 4581 
L 1388 4581 
L 2472 1338 
Q 2622 884 2691 659 
Q 2769 909 2934 1394 
L 4031 4581 
L 4847 4581 
L 4847 0 
L 4263 0 
L 4263 3834 
L 2931 0 
L 2384 0 
L 1059 3900 
L 1059 0 
L 475 0 
z
" transform="scale(0.015625)"/>
        <path id="ArialMT-45" d="M 506 0 
L 506 4581 
L 3819 4581 
L 3819 4041 
L 1113 4041 
L 1113 2638 
L 3647 2638 
L 3647 2100 
L 1113 2100 
L 1113 541 
L 3925 541 
L 3925 0 
L 506 0 
z
" transform="scale(0.015625)"/>
        <path id="ArialMT-44" d="M 494 0 
L 494 4581 
L 2072 4581 
Q 2606 4581 2888 4516 
Q 3281 4425 3559 4188 
Q 3922 3881 4101 3404 
Q 4281 2928 4281 2316 
Q 4281 1794 4159 1391 
Q 4038 988 3847 723 
Q 3656 459 3429 307 
Q 3203 156 2883 78 
Q 2563 0 2147 0 
L 494 0 
z
M 1100 541 
L 2078 541 
Q 2531 541 2789 625 
Q 3047 709 3200 863 
Q 3416 1078 3536 1442 
Q 3656 1806 3656 2325 
Q 3656 3044 3420 3430 
Q 3184 3816 2847 3947 
Q 2603 4041 2063 4041 
L 1100 4041 
L 1100 541 
z
" transform="scale(0.015625)"/>
        <path id="ArialMT-49" d="M 597 0 
L 597 4581 
L 1203 4581 
L 1203 0 
L 597 0 
z
" transform="scale(0.015625)"/>
        <path id="ArialMT-43" d="M 3763 1606 
L 4369 1453 
Q 4178 706 3683 314 
Q 3188 -78 2472 -78 
Q 1731 -78 1267 223 
Q 803 525 561 1097 
Q 319 1669 319 2325 
Q 319 3041 592 3573 
Q 866 4106 1370 4382 
Q 1875 4659 2481 4659 
Q 3169 4659 3637 4309 
Q 4106 3959 4291 3325 
L 3694 3184 
Q 3534 3684 3231 3912 
Q 2928 4141 2469 4141 
Q 1941 4141 1586 3887 
Q 1231 3634 1087 3207 
Q 944 2781 944 2328 
Q 944 1744 1114 1308 
Q 1284 872 1643 656 
Q 2003 441 2422 441 
Q 2931 441 3284 734 
Q 3638 1028 3763 1606 
z
" transform="scale(0.015625)"/>
        <path id="ArialMT-41" d="M -9 0 
L 1750 4581 
L 2403 4581 
L 4278 0 
L 3588 0 
L 3053 1388 
L 1138 1388 
L 634 0 
L -9 0 
z
M 1313 1881 
L 2866 1881 
L 2388 3150 
Q 2169 3728 2063 4100 
Q 1975 3659 1816 3225 
L 1313 1881 
z
" transform="scale(0.015625)"/>
        <path id="ArialMT-4c" d="M 469 0 
L 469 4581 
L 1075 4581 
L 1075 541 
L 3331 541 
L 3331 0 
L 469 0 
z
" transform="scale(0.015625)"/>
       </defs>
       <use xlink:href="#ArialMT-4d"/>
       <use xlink:href="#ArialMT-45" transform="translate(83.300781 0)"/>
       <use xlink:href="#ArialMT-44" transform="translate(150 0)"/>
       <use xlink:href="#ArialMT-49" transform="translate(222.216797 0)"/>
       <use xlink:href="#ArialMT-43" transform="translate(250 0)"/>
       <use xlink:href="#ArialMT-41" transform="translate(322.216797 0)"/>
       <use xlink:href="#ArialMT-4c" transform="translate(388.916016 0)"/>
      </g>
     </g>
    </g>
    <g id="ytick_7">
     <g id="line2d_2"/>
     <g id="text_2">
      <!-- FOOD -->
      <g transform="translate(214.007105 281.852578) scale(0.13 -0.13)">
       <defs>
        <path id="ArialMT-46" d="M 525 0 
L 525 4581 
L 3616 4581 
L 3616 4041 
L 1131 4041 
L 1131 2622 
L 3281 2622 
L 3281 2081 
L 1131 2081 
L 1131 0 
L 525 0 
z
" transform="scale(0.015625)"/>
        <path id="ArialMT-4f" d="M 309 2231 
Q 309 3372 921 4017 
Q 1534 4663 2503 4663 
Q 3138 4663 3647 4359 
Q 4156 4056 4423 3514 
Q 4691 2972 4691 2284 
Q 4691 1588 4409 1038 
Q 4128 488 3612 205 
Q 3097 -78 2500 -78 
Q 1853 -78 1343 234 
Q 834 547 571 1087 
Q 309 1628 309 2231 
z
M 934 2222 
Q 934 1394 1379 917 
Q 1825 441 2497 441 
Q 3181 441 3623 922 
Q 4066 1403 4066 2288 
Q 4066 2847 3877 3264 
Q 3688 3681 3323 3911 
Q 2959 4141 2506 4141 
Q 1863 4141 1398 3698 
Q 934 3256 934 2222 
z
" transform="scale(0.015625)"/>
       </defs>
       <use xlink:href="#ArialMT-46"/>
       <use xlink:href="#ArialMT-4f" transform="translate(61.083984 0)"/>
       <use xlink:href="#ArialMT-4f" transform="translate(138.867188 0)"/>
       <use xlink:href="#ArialMT-44" transform="translate(216.650391 0)"/>
      </g>
     </g>
    </g>
    <g id="ytick_8">
     <g id="line2d_3"/>
     <g id="text_3">
      <!-- ENDOGENOUS -->
      <g transform="translate(157.656167 259.852578) scale(0.13 -0.13)">
       <defs>
        <path id="ArialMT-4e" d="M 488 0 
L 488 4581 
L 1109 4581 
L 3516 984 
L 3516 4581 
L 4097 4581 
L 4097 0 
L 3475 0 
L 1069 3600 
L 1069 0 
L 488 0 
z
" transform="scale(0.015625)"/>
        <path id="ArialMT-47" d="M 2638 1797 
L 2638 2334 
L 4578 2338 
L 4578 638 
Q 4131 281 3656 101 
Q 3181 -78 2681 -78 
Q 2006 -78 1454 211 
Q 903 500 622 1047 
Q 341 1594 341 2269 
Q 341 2938 620 3517 
Q 900 4097 1425 4378 
Q 1950 4659 2634 4659 
Q 3131 4659 3532 4498 
Q 3934 4338 4162 4050 
Q 4391 3763 4509 3300 
L 3963 3150 
Q 3859 3500 3706 3700 
Q 3553 3900 3268 4020 
Q 2984 4141 2638 4141 
Q 2222 4141 1919 4014 
Q 1616 3888 1430 3681 
Q 1244 3475 1141 3228 
Q 966 2803 966 2306 
Q 966 1694 1177 1281 
Q 1388 869 1791 669 
Q 2194 469 2647 469 
Q 3041 469 3416 620 
Q 3791 772 3984 944 
L 3984 1797 
L 2638 1797 
z
" transform="scale(0.015625)"/>
        <path id="ArialMT-55" d="M 3500 4581 
L 4106 4581 
L 4106 1934 
Q 4106 1244 3950 837 
Q 3794 431 3386 176 
Q 2978 -78 2316 -78 
Q 1672 -78 1262 144 
Q 853 366 678 786 
Q 503 1206 503 1934 
L 503 4581 
L 1109 4581 
L 1109 1938 
Q 1109 1341 1220 1058 
Q 1331 775 1601 622 
Q 1872 469 2263 469 
Q 2931 469 3215 772 
Q 3500 1075 3500 1938 
L 3500 4581 
z
" transform="scale(0.015625)"/>
        <path id="ArialMT-53" d="M 288 1472 
L 859 1522 
Q 900 1178 1048 958 
Q 1197 738 1509 602 
Q 1822 466 2213 466 
Q 2559 466 2825 569 
Q 3091 672 3220 851 
Q 3350 1031 3350 1244 
Q 3350 1459 3225 1620 
Q 3100 1781 2813 1891 
Q 2628 1963 1997 2114 
Q 1366 2266 1113 2400 
Q 784 2572 623 2826 
Q 463 3081 463 3397 
Q 463 3744 659 4045 
Q 856 4347 1234 4503 
Q 1613 4659 2075 4659 
Q 2584 4659 2973 4495 
Q 3363 4331 3572 4012 
Q 3781 3694 3797 3291 
L 3216 3247 
Q 3169 3681 2898 3903 
Q 2628 4125 2100 4125 
Q 1550 4125 1298 3923 
Q 1047 3722 1047 3438 
Q 1047 3191 1225 3031 
Q 1400 2872 2139 2705 
Q 2878 2538 3153 2413 
Q 3553 2228 3743 1945 
Q 3934 1663 3934 1294 
Q 3934 928 3725 604 
Q 3516 281 3123 101 
Q 2731 -78 2241 -78 
Q 1619 -78 1198 103 
Q 778 284 539 648 
Q 300 1013 288 1472 
z
" transform="scale(0.015625)"/>
       </defs>
       <use xlink:href="#ArialMT-45"/>
       <use xlink:href="#ArialMT-4e" transform="translate(66.699219 0)"/>
       <use xlink:href="#ArialMT-44" transform="translate(138.916016 0)"/>
       <use xlink:href="#ArialMT-4f" transform="translate(211.132812 0)"/>
       <use xlink:href="#ArialMT-47" transform="translate(288.916016 0)"/>
       <use xlink:href="#ArialMT-45" transform="translate(366.699219 0)"/>
       <use xlink:href="#ArialMT-4e" transform="translate(433.398438 0)"/>
       <use xlink:href="#ArialMT-4f" transform="translate(505.615234 0)"/>
       <use xlink:href="#ArialMT-55" transform="translate(583.398438 0)"/>
       <use xlink:href="#ArialMT-53" transform="translate(655.615234 0)"/>
      </g>
     </g>
    </g>
    <g id="ytick_9">
     <g id="line2d_4"/>
     <g id="text_4">
      <!-- INDUSTRIAL -->
      <g transform="translate(174.269761 237.852578) scale(0.13 -0.13)">
       <defs>
        <path id="ArialMT-54" d="M 1659 0 
L 1659 4041 
L 150 4041 
L 150 4581 
L 3781 4581 
L 3781 4041 
L 2266 4041 
L 2266 0 
L 1659 0 
z
" transform="scale(0.015625)"/>
        <path id="ArialMT-52" d="M 503 0 
L 503 4581 
L 2534 4581 
Q 3147 4581 3465 4457 
Q 3784 4334 3975 4021 
Q 4166 3709 4166 3331 
Q 4166 2844 3850 2509 
Q 3534 2175 2875 2084 
Q 3116 1969 3241 1856 
Q 3506 1613 3744 1247 
L 4541 0 
L 3778 0 
L 3172 953 
Q 2906 1366 2734 1584 
Q 2563 1803 2427 1890 
Q 2291 1978 2150 2013 
Q 2047 2034 1813 2034 
L 1109 2034 
L 1109 0 
L 503 0 
z
M 1109 2559 
L 2413 2559 
Q 2828 2559 3062 2645 
Q 3297 2731 3419 2920 
Q 3541 3109 3541 3331 
Q 3541 3656 3305 3865 
Q 3069 4075 2559 4075 
L 1109 4075 
L 1109 2559 
z
" transform="scale(0.015625)"/>
       </defs>
       <use xlink:href="#ArialMT-49"/>
       <use xlink:href="#ArialMT-4e" transform="translate(27.783203 0)"/>
       <use xlink:href="#ArialMT-44" transform="translate(100 0)"/>
       <use xlink:href="#ArialMT-55" transform="translate(172.216797 0)"/>
       <use xlink:href="#ArialMT-53" transform="translate(244.433594 0)"/>
       <use xlink:href="#ArialMT-54" transform="translate(311.132812 0)"/>
       <use xlink:href="#ArialMT-52" transform="translate(372.216797 0)"/>
       <use xlink:href="#ArialMT-49" transform="translate(444.433594 0)"/>
       <use xlink:href="#ArialMT-41" transform="translate(472.216797 0)"/>
       <use xlink:href="#ArialMT-4c" transform="translate(538.916016 0)"/>
      </g>
     </g>
    </g>
    <g id="ytick_10">
     <g id="line2d_5"/>
     <g id="text_5">
      <!-- PERSONAL CARE -->
      <g transform="translate(141.511792 215.852578) scale(0.13 -0.13)">
       <defs>
        <path id="ArialMT-50" d="M 494 0 
L 494 4581 
L 2222 4581 
Q 2678 4581 2919 4538 
Q 3256 4481 3484 4323 
Q 3713 4166 3852 3881 
Q 3991 3597 3991 3256 
Q 3991 2672 3619 2267 
Q 3247 1863 2275 1863 
L 1100 1863 
L 1100 0 
L 494 0 
z
M 1100 2403 
L 2284 2403 
Q 2872 2403 3119 2622 
Q 3366 2841 3366 3238 
Q 3366 3525 3220 3729 
Q 3075 3934 2838 4000 
Q 2684 4041 2272 4041 
L 1100 4041 
L 1100 2403 
z
" transform="scale(0.015625)"/>
        <path id="ArialMT-20" transform="scale(0.015625)"/>
       </defs>
       <use xlink:href="#ArialMT-50"/>
       <use xlink:href="#ArialMT-45" transform="translate(66.699219 0)"/>
       <use xlink:href="#ArialMT-52" transform="translate(133.398438 0)"/>
       <use xlink:href="#ArialMT-53" transform="translate(205.615234 0)"/>
       <use xlink:href="#ArialMT-4f" transform="translate(272.314453 0)"/>
       <use xlink:href="#ArialMT-4e" transform="translate(350.097656 0)"/>
       <use xlink:href="#ArialMT-41" transform="translate(422.314453 0)"/>
       <use xlink:href="#ArialMT-4c" transform="translate(489.013672 0)"/>
       <use xlink:href="#ArialMT-20" transform="translate(540.878906 0)"/>
       <use xlink:href="#ArialMT-43" transform="translate(568.662109 0)"/>
       <use xlink:href="#ArialMT-41" transform="translate(640.878906 0)"/>
       <use xlink:href="#ArialMT-52" transform="translate(707.578125 0)"/>
       <use xlink:href="#ArialMT-45" transform="translate(779.794922 0)"/>
      </g>
     </g>
    </g>
   </g>
   <g id="LineCollection_1">
    <path d="M 267.402715 299.2 
L 267.402715 299.2 
" clip-path="url(#pf8c5c9afab)" style="fill: none; stroke: #000000; stroke-width: 2"/>
    <path d="M 292.090498 299.2 
L 292.090498 277.2 
" clip-path="url(#pf8c5c9afab)" style="fill: none; stroke: #000000; stroke-width: 2"/>
    <path d="M 316.778281 299.2 
L 316.778281 255.2 
" clip-path="url(#pf8c5c9afab)" style="fill: none; stroke: #000000; stroke-width: 2"/>
    <path d="M 341.466063 233.2 
L 341.466063 233.2 
" clip-path="url(#pf8c5c9afab)" style="fill: none; stroke: #000000; stroke-width: 2"/>
    <path d="M 366.153846 277.2 
L 366.153846 277.2 
" clip-path="url(#pf8c5c9afab)" style="fill: none; stroke: #000000; stroke-width: 2"/>
    <path d="M 390.841629 211.2 
L 390.841629 211.2 
" clip-path="url(#pf8c5c9afab)" style="fill: none; stroke: #000000; stroke-width: 2"/>
    <path d="M 415.529412 299.2 
L 415.529412 211.2 
" clip-path="url(#pf8c5c9afab)" style="fill: none; stroke: #000000; stroke-width: 2"/>
    <path d="M 440.217195 299.2 
L 440.217195 233.2 
" clip-path="url(#pf8c5c9afab)" style="fill: none; stroke: #000000; stroke-width: 2"/>
    <path d="M 464.904977 299.2 
L 464.904977 211.2 
" clip-path="url(#pf8c5c9afab)" style="fill: none; stroke: #000000; stroke-width: 2"/>
    <path d="M 489.59276 255.2 
L 489.59276 255.2 
" clip-path="url(#pf8c5c9afab)" style="fill: none; stroke: #000000; stroke-width: 2"/>
    <path d="M 514.280543 299.2 
L 514.280543 255.2 
" clip-path="url(#pf8c5c9afab)" style="fill: none; stroke: #000000; stroke-width: 2"/>
    <path d="M 538.968326 299.2 
L 538.968326 211.2 
" clip-path="url(#pf8c5c9afab)" style="fill: none; stroke: #000000; stroke-width: 2"/>
    <path d="M 563.656109 277.2 
L 563.656109 211.2 
" clip-path="url(#pf8c5c9afab)" style="fill: none; stroke: #000000; stroke-width: 2"/>
   </g>
   <g id="PathCollection_1">
    <defs>
     <path id="C0_0_bc66b378d4" d="M 0 5.6 
C 1.485137 5.6 2.909647 5.009949 3.959798 3.959798 
C 5.009949 2.909647 5.6 1.485137 5.6 -0 
C 5.6 -1.485137 5.009949 -2.909647 3.959798 -3.959798 
C 2.909647 -5.009949 1.485137 -5.6 0 -5.6 
C -1.485137 -5.6 -2.909647 -5.009949 -3.959798 -3.959798 
C -5.009949 -2.909647 -5.6 -1.485137 -5.6 0 
C -5.6 1.485137 -5.009949 2.909647 -3.959798 3.959798 
C -2.909647 5.009949 -1.485137 5.6 0 5.6 
z
"/>
    </defs>
    <g clip-path="url(#pf8c5c9afab)">
     <use xlink:href="#C0_0_bc66b378d4" x="267.402715" y="299.2" style="stroke: #000000"/>
    </g>
    <g clip-path="url(#pf8c5c9afab)">
     <use xlink:href="#C0_0_bc66b378d4" x="267.402715" y="277.2" style="fill-opacity: 0.180392"/>
    </g>
    <g clip-path="url(#pf8c5c9afab)">
     <use xlink:href="#C0_0_bc66b378d4" x="267.402715" y="255.2" style="fill-opacity: 0.180392"/>
    </g>
    <g clip-path="url(#pf8c5c9afab)">
     <use xlink:href="#C0_0_bc66b378d4" x="267.402715" y="233.2" style="fill-opacity: 0.180392"/>
    </g>
    <g clip-path="url(#pf8c5c9afab)">
     <use xlink:href="#C0_0_bc66b378d4" x="267.402715" y="211.2" style="fill-opacity: 0.180392"/>
    </g>
    <g clip-path="url(#pf8c5c9afab)">
     <use xlink:href="#C0_0_bc66b378d4" x="292.090498" y="299.2" style="stroke: #000000"/>
    </g>
    <g clip-path="url(#pf8c5c9afab)">
     <use xlink:href="#C0_0_bc66b378d4" x="292.090498" y="277.2" style="stroke: #000000"/>
    </g>
    <g clip-path="url(#pf8c5c9afab)">
     <use xlink:href="#C0_0_bc66b378d4" x="292.090498" y="255.2" style="fill-opacity: 0.180392"/>
    </g>
    <g clip-path="url(#pf8c5c9afab)">
     <use xlink:href="#C0_0_bc66b378d4" x="292.090498" y="233.2" style="fill-opacity: 0.180392"/>
    </g>
    <g clip-path="url(#pf8c5c9afab)">
     <use xlink:href="#C0_0_bc66b378d4" x="292.090498" y="211.2" style="fill-opacity: 0.180392"/>
    </g>
    <g clip-path="url(#pf8c5c9afab)">
     <use xlink:href="#C0_0_bc66b378d4" x="316.778281" y="299.2" style="stroke: #000000"/>
    </g>
    <g clip-path="url(#pf8c5c9afab)">
     <use xlink:href="#C0_0_bc66b378d4" x="316.778281" y="277.2" style="fill-opacity: 0.180392"/>
    </g>
    <g clip-path="url(#pf8c5c9afab)">
     <use xlink:href="#C0_0_bc66b378d4" x="316.778281" y="255.2" style="stroke: #000000"/>
    </g>
    <g clip-path="url(#pf8c5c9afab)">
     <use xlink:href="#C0_0_bc66b378d4" x="316.778281" y="233.2" style="fill-opacity: 0.180392"/>
    </g>
    <g clip-path="url(#pf8c5c9afab)">
     <use xlink:href="#C0_0_bc66b378d4" x="316.778281" y="211.2" style="fill-opacity: 0.180392"/>
    </g>
    <g clip-path="url(#pf8c5c9afab)">
     <use xlink:href="#C0_0_bc66b378d4" x="341.466063" y="299.2" style="fill-opacity: 0.180392"/>
    </g>
    <g clip-path="url(#pf8c5c9afab)">
     <use xlink:href="#C0_0_bc66b378d4" x="341.466063" y="277.2" style="fill-opacity: 0.180392"/>
    </g>
    <g clip-path="url(#pf8c5c9afab)">
     <use xlink:href="#C0_0_bc66b378d4" x="341.466063" y="255.2" style="fill-opacity: 0.180392"/>
    </g>
    <g clip-path="url(#pf8c5c9afab)">
     <use xlink:href="#C0_0_bc66b378d4" x="341.466063" y="233.2" style="stroke: #000000"/>
    </g>
    <g clip-path="url(#pf8c5c9afab)">
     <use xlink:href="#C0_0_bc66b378d4" x="341.466063" y="211.2" style="fill-opacity: 0.180392"/>
    </g>
    <g clip-path="url(#pf8c5c9afab)">
     <use xlink:href="#C0_0_bc66b378d4" x="366.153846" y="299.2" style="fill-opacity: 0.180392"/>
    </g>
    <g clip-path="url(#pf8c5c9afab)">
     <use xlink:href="#C0_0_bc66b378d4" x="366.153846" y="277.2" style="stroke: #000000"/>
    </g>
    <g clip-path="url(#pf8c5c9afab)">
     <use xlink:href="#C0_0_bc66b378d4" x="366.153846" y="255.2" style="fill-opacity: 0.180392"/>
    </g>
    <g clip-path="url(#pf8c5c9afab)">
     <use xlink:href="#C0_0_bc66b378d4" x="366.153846" y="233.2" style="fill-opacity: 0.180392"/>
    </g>
    <g clip-path="url(#pf8c5c9afab)">
     <use xlink:href="#C0_0_bc66b378d4" x="366.153846" y="211.2" style="fill-opacity: 0.180392"/>
    </g>
    <g clip-path="url(#pf8c5c9afab)">
     <use xlink:href="#C0_0_bc66b378d4" x="390.841629" y="299.2" style="fill-opacity: 0.180392"/>
    </g>
    <g clip-path="url(#pf8c5c9afab)">
     <use xlink:href="#C0_0_bc66b378d4" x="390.841629" y="277.2" style="fill-opacity: 0.180392"/>
    </g>
    <g clip-path="url(#pf8c5c9afab)">
     <use xlink:href="#C0_0_bc66b378d4" x="390.841629" y="255.2" style="fill-opacity: 0.180392"/>
    </g>
    <g clip-path="url(#pf8c5c9afab)">
     <use xlink:href="#C0_0_bc66b378d4" x="390.841629" y="233.2" style="fill-opacity: 0.180392"/>
    </g>
    <g clip-path="url(#pf8c5c9afab)">
     <use xlink:href="#C0_0_bc66b378d4" x="390.841629" y="211.2" style="stroke: #000000"/>
    </g>
    <g clip-path="url(#pf8c5c9afab)">
     <use xlink:href="#C0_0_bc66b378d4" x="415.529412" y="299.2" style="stroke: #000000"/>
    </g>
    <g clip-path="url(#pf8c5c9afab)">
     <use xlink:href="#C0_0_bc66b378d4" x="415.529412" y="277.2" style="fill-opacity: 0.180392"/>
    </g>
    <g clip-path="url(#pf8c5c9afab)">
     <use xlink:href="#C0_0_bc66b378d4" x="415.529412" y="255.2" style="fill-opacity: 0.180392"/>
    </g>
    <g clip-path="url(#pf8c5c9afab)">
     <use xlink:href="#C0_0_bc66b378d4" x="415.529412" y="233.2" style="fill-opacity: 0.180392"/>
    </g>
    <g clip-path="url(#pf8c5c9afab)">
     <use xlink:href="#C0_0_bc66b378d4" x="415.529412" y="211.2" style="stroke: #000000"/>
    </g>
    <g clip-path="url(#pf8c5c9afab)">
     <use xlink:href="#C0_0_bc66b378d4" x="440.217195" y="299.2" style="stroke: #000000"/>
    </g>
    <g clip-path="url(#pf8c5c9afab)">
     <use xlink:href="#C0_0_bc66b378d4" x="440.217195" y="277.2" style="fill-opacity: 0.180392"/>
    </g>
    <g clip-path="url(#pf8c5c9afab)">
     <use xlink:href="#C0_0_bc66b378d4" x="440.217195" y="255.2" style="fill-opacity: 0.180392"/>
    </g>
    <g clip-path="url(#pf8c5c9afab)">
     <use xlink:href="#C0_0_bc66b378d4" x="440.217195" y="233.2" style="stroke: #000000"/>
    </g>
    <g clip-path="url(#pf8c5c9afab)">
     <use xlink:href="#C0_0_bc66b378d4" x="440.217195" y="211.2" style="fill-opacity: 0.180392"/>
    </g>
    <g clip-path="url(#pf8c5c9afab)">
     <use xlink:href="#C0_0_bc66b378d4" x="464.904977" y="299.2" style="stroke: #000000"/>
    </g>
    <g clip-path="url(#pf8c5c9afab)">
     <use xlink:href="#C0_0_bc66b378d4" x="464.904977" y="277.2" style="stroke: #000000"/>
    </g>
    <g clip-path="url(#pf8c5c9afab)">
     <use xlink:href="#C0_0_bc66b378d4" x="464.904977" y="255.2" style="fill-opacity: 0.180392"/>
    </g>
    <g clip-path="url(#pf8c5c9afab)">
     <use xlink:href="#C0_0_bc66b378d4" x="464.904977" y="233.2" style="fill-opacity: 0.180392"/>
    </g>
    <g clip-path="url(#pf8c5c9afab)">
     <use xlink:href="#C0_0_bc66b378d4" x="464.904977" y="211.2" style="stroke: #000000"/>
    </g>
    <g clip-path="url(#pf8c5c9afab)">
     <use xlink:href="#C0_0_bc66b378d4" x="489.59276" y="299.2" style="fill-opacity: 0.180392"/>
    </g>
    <g clip-path="url(#pf8c5c9afab)">
     <use xlink:href="#C0_0_bc66b378d4" x="489.59276" y="277.2" style="fill-opacity: 0.180392"/>
    </g>
    <g clip-path="url(#pf8c5c9afab)">
     <use xlink:href="#C0_0_bc66b378d4" x="489.59276" y="255.2" style="stroke: #000000"/>
    </g>
    <g clip-path="url(#pf8c5c9afab)">
     <use xlink:href="#C0_0_bc66b378d4" x="489.59276" y="233.2" style="fill-opacity: 0.180392"/>
    </g>
    <g clip-path="url(#pf8c5c9afab)">
     <use xlink:href="#C0_0_bc66b378d4" x="489.59276" y="211.2" style="fill-opacity: 0.180392"/>
    </g>
    <g clip-path="url(#pf8c5c9afab)">
     <use xlink:href="#C0_0_bc66b378d4" x="514.280543" y="299.2" style="stroke: #000000"/>
    </g>
    <g clip-path="url(#pf8c5c9afab)">
     <use xlink:href="#C0_0_bc66b378d4" x="514.280543" y="277.2" style="stroke: #000000"/>
    </g>
    <g clip-path="url(#pf8c5c9afab)">
     <use xlink:href="#C0_0_bc66b378d4" x="514.280543" y="255.2" style="stroke: #000000"/>
    </g>
    <g clip-path="url(#pf8c5c9afab)">
     <use xlink:href="#C0_0_bc66b378d4" x="514.280543" y="233.2" style="fill-opacity: 0.180392"/>
    </g>
    <g clip-path="url(#pf8c5c9afab)">
     <use xlink:href="#C0_0_bc66b378d4" x="514.280543" y="211.2" style="fill-opacity: 0.180392"/>
    </g>
    <g clip-path="url(#pf8c5c9afab)">
     <use xlink:href="#C0_0_bc66b378d4" x="538.968326" y="299.2" style="stroke: #000000"/>
    </g>
    <g clip-path="url(#pf8c5c9afab)">
     <use xlink:href="#C0_0_bc66b378d4" x="538.968326" y="277.2" style="fill-opacity: 0.180392"/>
    </g>
    <g clip-path="url(#pf8c5c9afab)">
     <use xlink:href="#C0_0_bc66b378d4" x="538.968326" y="255.2" style="fill-opacity: 0.180392"/>
    </g>
    <g clip-path="url(#pf8c5c9afab)">
     <use xlink:href="#C0_0_bc66b378d4" x="538.968326" y="233.2" style="stroke: #000000"/>
    </g>
    <g clip-path="url(#pf8c5c9afab)">
     <use xlink:href="#C0_0_bc66b378d4" x="538.968326" y="211.2" style="stroke: #000000"/>
    </g>
    <g clip-path="url(#pf8c5c9afab)">
     <use xlink:href="#C0_0_bc66b378d4" x="563.656109" y="299.2" style="fill-opacity: 0.180392"/>
    </g>
    <g clip-path="url(#pf8c5c9afab)">
     <use xlink:href="#C0_0_bc66b378d4" x="563.656109" y="277.2" style="stroke: #000000"/>
    </g>
    <g clip-path="url(#pf8c5c9afab)">
     <use xlink:href="#C0_0_bc66b378d4" x="563.656109" y="255.2" style="fill-opacity: 0.180392"/>
    </g>
    <g clip-path="url(#pf8c5c9afab)">
     <use xlink:href="#C0_0_bc66b378d4" x="563.656109" y="233.2" style="fill-opacity: 0.180392"/>
    </g>
    <g clip-path="url(#pf8c5c9afab)">
     <use xlink:href="#C0_0_bc66b378d4" x="563.656109" y="211.2" style="stroke: #000000"/>
    </g>
   </g>
  </g>
  <g id="axes_3">
   <g id="patch_7">
    <path d="M 125.848739 304.7 
L 80 304.7 
L 80 293.7 
L 125.848739 293.7 
z
" clip-path="url(#p6439d639c2)" style="stroke: #000000; stroke-linejoin: miter"/>
   </g>
   <g id="patch_8">
    <path d="M 125.848739 282.7 
L 106.382236 282.7 
L 106.382236 271.7 
L 125.848739 271.7 
z
" clip-path="url(#p6439d639c2)" style="stroke: #000000; stroke-linejoin: miter"/>
   </g>
   <g id="patch_9">
    <path d="M 125.848739 260.7 
L 116.883902 260.7 
L 116.883902 249.7 
L 125.848739 249.7 
z
" clip-path="url(#p6439d639c2)" style="stroke: #000000; stroke-linejoin: miter"/>
   </g>
   <g id="patch_10">
    <path d="M 125.848739 238.7 
L 117.14004 238.7 
L 117.14004 227.7 
L 125.848739 227.7 
z
" clip-path="url(#p6439d639c2)" style="stroke: #000000; stroke-linejoin: miter"/>
   </g>
   <g id="patch_11">
    <path d="M 125.848739 216.7 
L 117.14004 216.7 
L 117.14004 205.7 
L 125.848739 205.7 
z
" clip-path="url(#p6439d639c2)" style="stroke: #000000; stroke-linejoin: miter"/>
   </g>
   <g id="matplotlib.axis_4">
    <g id="xtick_1">
     <g id="line2d_6">
      <defs>
       <path id="m69120473a9" d="M 0 0 
L 0 3.5 
" style="stroke: #000000; stroke-width: 0.8"/>
      </defs>
      <g>
       <use xlink:href="#m69120473a9" x="125.848739" y="313.28" style="stroke: #000000; stroke-width: 0.8"/>
      </g>
     </g>
     <g id="text_6">
      <!-- 0 -->
      <g transform="translate(122.23413 329.585156) scale(0.13 -0.13)">
       <defs>
        <path id="ArialMT-30" d="M 266 2259 
Q 266 3072 433 3567 
Q 600 4063 929 4331 
Q 1259 4600 1759 4600 
Q 2128 4600 2406 4451 
Q 2684 4303 2865 4023 
Q 3047 3744 3150 3342 
Q 3253 2941 3253 2259 
Q 3253 1453 3087 958 
Q 2922 463 2592 192 
Q 2263 -78 1759 -78 
Q 1097 -78 719 397 
Q 266 969 266 2259 
z
M 844 2259 
Q 844 1131 1108 757 
Q 1372 384 1759 384 
Q 2147 384 2411 759 
Q 2675 1134 2675 2259 
Q 2675 3391 2411 3762 
Q 2147 4134 1753 4134 
Q 1366 4134 1134 3806 
Q 844 3388 844 2259 
z
" transform="scale(0.015625)"/>
       </defs>
       <use xlink:href="#ArialMT-30"/>
      </g>
     </g>
    </g>
    <g id="xtick_2">
     <g id="line2d_7">
      <g>
       <use xlink:href="#m69120473a9" x="100.234919" y="313.28" style="stroke: #000000; stroke-width: 0.8"/>
      </g>
     </g>
     <g id="text_7">
      <!-- 100 -->
      <g transform="translate(89.39109 329.585156) scale(0.13 -0.13)">
       <defs>
        <path id="ArialMT-31" d="M 2384 0 
L 1822 0 
L 1822 3584 
Q 1619 3391 1289 3197 
Q 959 3003 697 2906 
L 697 3450 
Q 1169 3672 1522 3987 
Q 1875 4303 2022 4600 
L 2384 4600 
L 2384 0 
z
" transform="scale(0.015625)"/>
       </defs>
       <use xlink:href="#ArialMT-31"/>
       <use xlink:href="#ArialMT-30" transform="translate(55.615234 0)"/>
       <use xlink:href="#ArialMT-30" transform="translate(111.230469 0)"/>
      </g>
     </g>
    </g>
   </g>
   <g id="patch_12">
    <path d="M 80 313.28 
L 125.848739 313.28 
" style="fill: none; stroke: #000000; stroke-width: 0.8; stroke-linejoin: miter; stroke-linecap: square"/>
   </g>
   <g id="text_8">
    <!-- 179 -->
    <g transform="translate(57.830932 302.560703) scale(0.13 -0.13)">
     <defs>
      <path id="ArialMT-37" d="M 303 3981 
L 303 4522 
L 3269 4522 
L 3269 4084 
Q 2831 3619 2401 2847 
Q 1972 2075 1738 1259 
Q 1569 684 1522 0 
L 944 0 
Q 953 541 1156 1306 
Q 1359 2072 1739 2783 
Q 2119 3494 2547 3981 
L 303 3981 
z
" transform="scale(0.015625)"/>
      <path id="ArialMT-39" d="M 350 1059 
L 891 1109 
Q 959 728 1153 556 
Q 1347 384 1650 384 
Q 1909 384 2104 503 
Q 2300 622 2425 820 
Q 2550 1019 2634 1356 
Q 2719 1694 2719 2044 
Q 2719 2081 2716 2156 
Q 2547 1888 2255 1720 
Q 1963 1553 1622 1553 
Q 1053 1553 659 1965 
Q 266 2378 266 3053 
Q 266 3750 677 4175 
Q 1088 4600 1706 4600 
Q 2153 4600 2523 4359 
Q 2894 4119 3086 3673 
Q 3278 3228 3278 2384 
Q 3278 1506 3087 986 
Q 2897 466 2520 194 
Q 2144 -78 1638 -78 
Q 1100 -78 759 220 
Q 419 519 350 1059 
z
M 2653 3081 
Q 2653 3566 2395 3850 
Q 2138 4134 1775 4134 
Q 1400 4134 1122 3828 
Q 844 3522 844 3034 
Q 844 2597 1108 2323 
Q 1372 2050 1759 2050 
Q 2150 2050 2401 2323 
Q 2653 2597 2653 3081 
z
" transform="scale(0.015625)"/>
     </defs>
     <use xlink:href="#ArialMT-31"/>
     <use xlink:href="#ArialMT-37" transform="translate(55.615234 0)"/>
     <use xlink:href="#ArialMT-39" transform="translate(111.230469 0)"/>
    </g>
   </g>
   <g id="text_9">
    <!-- 76 -->
    <g transform="translate(91.442386 280.560703) scale(0.13 -0.13)">
     <defs>
      <path id="ArialMT-36" d="M 3184 3459 
L 2625 3416 
Q 2550 3747 2413 3897 
Q 2184 4138 1850 4138 
Q 1581 4138 1378 3988 
Q 1113 3794 959 3422 
Q 806 3050 800 2363 
Q 1003 2672 1297 2822 
Q 1591 2972 1913 2972 
Q 2475 2972 2870 2558 
Q 3266 2144 3266 1488 
Q 3266 1056 3080 686 
Q 2894 316 2569 119 
Q 2244 -78 1831 -78 
Q 1128 -78 684 439 
Q 241 956 241 2144 
Q 241 3472 731 4075 
Q 1159 4600 1884 4600 
Q 2425 4600 2770 4297 
Q 3116 3994 3184 3459 
z
M 888 1484 
Q 888 1194 1011 928 
Q 1134 663 1356 523 
Q 1578 384 1822 384 
Q 2178 384 2434 671 
Q 2691 959 2691 1453 
Q 2691 1928 2437 2201 
Q 2184 2475 1800 2475 
Q 1419 2475 1153 2201 
Q 888 1928 888 1484 
z
" transform="scale(0.015625)"/>
     </defs>
     <use xlink:href="#ArialMT-37"/>
     <use xlink:href="#ArialMT-36" transform="translate(55.615234 0)"/>
    </g>
   </g>
   <g id="text_10">
    <!-- 35 -->
    <g transform="translate(101.944053 258.560703) scale(0.13 -0.13)">
     <defs>
      <path id="ArialMT-33" d="M 269 1209 
L 831 1284 
Q 928 806 1161 595 
Q 1394 384 1728 384 
Q 2125 384 2398 659 
Q 2672 934 2672 1341 
Q 2672 1728 2419 1979 
Q 2166 2231 1775 2231 
Q 1616 2231 1378 2169 
L 1441 2663 
Q 1497 2656 1531 2656 
Q 1891 2656 2178 2843 
Q 2466 3031 2466 3422 
Q 2466 3731 2256 3934 
Q 2047 4138 1716 4138 
Q 1388 4138 1169 3931 
Q 950 3725 888 3313 
L 325 3413 
Q 428 3978 793 4289 
Q 1159 4600 1703 4600 
Q 2078 4600 2393 4439 
Q 2709 4278 2876 4000 
Q 3044 3722 3044 3409 
Q 3044 3113 2884 2869 
Q 2725 2625 2413 2481 
Q 2819 2388 3044 2092 
Q 3269 1797 3269 1353 
Q 3269 753 2831 336 
Q 2394 -81 1725 -81 
Q 1122 -81 723 278 
Q 325 638 269 1209 
z
" transform="scale(0.015625)"/>
      <path id="ArialMT-35" d="M 266 1200 
L 856 1250 
Q 922 819 1161 601 
Q 1400 384 1738 384 
Q 2144 384 2425 690 
Q 2706 997 2706 1503 
Q 2706 1984 2436 2262 
Q 2166 2541 1728 2541 
Q 1456 2541 1237 2417 
Q 1019 2294 894 2097 
L 366 2166 
L 809 4519 
L 3088 4519 
L 3088 3981 
L 1259 3981 
L 1013 2750 
Q 1425 3038 1878 3038 
Q 2478 3038 2890 2622 
Q 3303 2206 3303 1553 
Q 3303 931 2941 478 
Q 2500 -78 1738 -78 
Q 1113 -78 717 272 
Q 322 622 266 1200 
z
" transform="scale(0.015625)"/>
     </defs>
     <use xlink:href="#ArialMT-33"/>
     <use xlink:href="#ArialMT-35" transform="translate(55.615234 0)"/>
    </g>
   </g>
   <g id="text_11">
    <!-- 34 -->
    <g transform="translate(102.200191 236.560703) scale(0.13 -0.13)">
     <defs>
      <path id="ArialMT-34" d="M 2069 0 
L 2069 1097 
L 81 1097 
L 81 1613 
L 2172 4581 
L 2631 4581 
L 2631 1613 
L 3250 1613 
L 3250 1097 
L 2631 1097 
L 2631 0 
L 2069 0 
z
M 2069 1613 
L 2069 3678 
L 634 1613 
L 2069 1613 
z
" transform="scale(0.015625)"/>
     </defs>
     <use xlink:href="#ArialMT-33"/>
     <use xlink:href="#ArialMT-34" transform="translate(55.615234 0)"/>
    </g>
   </g>
   <g id="text_12">
    <!-- 34 -->
    <g transform="translate(102.200191 214.560703) scale(0.13 -0.13)">
     <use xlink:href="#ArialMT-33"/>
     <use xlink:href="#ArialMT-34" transform="translate(55.615234 0)"/>
    </g>
   </g>
  </g>
  <g id="axes_4">
   <g id="patch_13">
    <path d="M 255.058824 184.213333 
L 576 184.213333 
L 576 42.24 
L 255.058824 42.24 
z
" style="fill: #ffffff"/>
   </g>
   <g id="matplotlib.axis_5">
    <g id="ytick_11">
     <g id="line2d_8">
      <defs>
       <path id="mbe3c594140" d="M 0 0 
L -3.5 0 
" style="stroke: #000000; stroke-width: 0.8"/>
      </defs>
      <g>
       <use xlink:href="#mbe3c594140" x="255.058824" y="184.213333" style="stroke: #000000; stroke-width: 0.8"/>
      </g>
     </g>
     <g id="text_13">
      <!-- 0 -->
      <g transform="translate(240.829605 188.865911) scale(0.13 -0.13)">
       <use xlink:href="#ArialMT-30"/>
      </g>
     </g>
    </g>
    <g id="ytick_12">
     <g id="line2d_9">
      <g>
       <use xlink:href="#mbe3c594140" x="255.058824" y="149.093152" style="stroke: #000000; stroke-width: 0.8"/>
      </g>
     </g>
     <g id="text_14">
      <!-- 20 -->
      <g transform="translate(233.600386 153.74573) scale(0.13 -0.13)">
       <defs>
        <path id="ArialMT-32" d="M 3222 541 
L 3222 0 
L 194 0 
Q 188 203 259 391 
Q 375 700 629 1000 
Q 884 1300 1366 1694 
Q 2113 2306 2375 2664 
Q 2638 3022 2638 3341 
Q 2638 3675 2398 3904 
Q 2159 4134 1775 4134 
Q 1369 4134 1125 3890 
Q 881 3647 878 3216 
L 300 3275 
Q 359 3922 746 4261 
Q 1134 4600 1788 4600 
Q 2447 4600 2831 4234 
Q 3216 3869 3216 3328 
Q 3216 3053 3103 2787 
Q 2991 2522 2730 2228 
Q 2469 1934 1863 1422 
Q 1356 997 1212 845 
Q 1069 694 975 541 
L 3222 541 
z
" transform="scale(0.015625)"/>
       </defs>
       <use xlink:href="#ArialMT-32"/>
       <use xlink:href="#ArialMT-30" transform="translate(55.615234 0)"/>
      </g>
     </g>
    </g>
    <g id="ytick_13">
     <g id="line2d_10">
      <g>
       <use xlink:href="#mbe3c594140" x="255.058824" y="113.972971" style="stroke: #000000; stroke-width: 0.8"/>
      </g>
     </g>
     <g id="text_15">
      <!-- 40 -->
      <g transform="translate(233.600386 118.625549) scale(0.13 -0.13)">
       <use xlink:href="#ArialMT-34"/>
       <use xlink:href="#ArialMT-30" transform="translate(55.615234 0)"/>
      </g>
     </g>
    </g>
    <g id="ytick_14">
     <g id="line2d_11">
      <g>
       <use xlink:href="#mbe3c594140" x="255.058824" y="78.852789" style="stroke: #000000; stroke-width: 0.8"/>
      </g>
     </g>
     <g id="text_16">
      <!-- 60 -->
      <g transform="translate(233.600386 83.505367) scale(0.13 -0.13)">
       <use xlink:href="#ArialMT-36"/>
       <use xlink:href="#ArialMT-30" transform="translate(55.615234 0)"/>
      </g>
     </g>
    </g>
    <g id="ytick_15">
     <g id="line2d_12">
      <g>
       <use xlink:href="#mbe3c594140" x="255.058824" y="43.732608" style="stroke: #000000; stroke-width: 0.8"/>
      </g>
     </g>
     <g id="text_17">
      <!-- 80 -->
      <g transform="translate(233.600386 48.385186) scale(0.13 -0.13)">
       <defs>
        <path id="ArialMT-38" d="M 1131 2484 
Q 781 2613 612 2850 
Q 444 3088 444 3419 
Q 444 3919 803 4259 
Q 1163 4600 1759 4600 
Q 2359 4600 2725 4251 
Q 3091 3903 3091 3403 
Q 3091 3084 2923 2848 
Q 2756 2613 2416 2484 
Q 2838 2347 3058 2040 
Q 3278 1734 3278 1309 
Q 3278 722 2862 322 
Q 2447 -78 1769 -78 
Q 1091 -78 675 323 
Q 259 725 259 1325 
Q 259 1772 486 2073 
Q 713 2375 1131 2484 
z
M 1019 3438 
Q 1019 3113 1228 2906 
Q 1438 2700 1772 2700 
Q 2097 2700 2305 2904 
Q 2513 3109 2513 3406 
Q 2513 3716 2298 3927 
Q 2084 4138 1766 4138 
Q 1444 4138 1231 3931 
Q 1019 3725 1019 3438 
z
M 838 1322 
Q 838 1081 952 856 
Q 1066 631 1291 507 
Q 1516 384 1775 384 
Q 2178 384 2440 643 
Q 2703 903 2703 1303 
Q 2703 1709 2433 1975 
Q 2163 2241 1756 2241 
Q 1359 2241 1098 1978 
Q 838 1716 838 1322 
z
" transform="scale(0.015625)"/>
       </defs>
       <use xlink:href="#ArialMT-38"/>
       <use xlink:href="#ArialMT-30" transform="translate(55.615234 0)"/>
      </g>
     </g>
    </g>
    <g id="text_18">
     <!-- Intersection size -->
     <g transform="translate(227.016636 160.190182) rotate(-90) scale(0.13 -0.13)">
      <defs>
       <path id="ArialMT-6e" d="M 422 0 
L 422 3319 
L 928 3319 
L 928 2847 
Q 1294 3394 1984 3394 
Q 2284 3394 2536 3286 
Q 2788 3178 2913 3003 
Q 3038 2828 3088 2588 
Q 3119 2431 3119 2041 
L 3119 0 
L 2556 0 
L 2556 2019 
Q 2556 2363 2490 2533 
Q 2425 2703 2258 2804 
Q 2091 2906 1866 2906 
Q 1506 2906 1245 2678 
Q 984 2450 984 1813 
L 984 0 
L 422 0 
z
" transform="scale(0.015625)"/>
       <path id="ArialMT-74" d="M 1650 503 
L 1731 6 
Q 1494 -44 1306 -44 
Q 1000 -44 831 53 
Q 663 150 594 308 
Q 525 466 525 972 
L 525 2881 
L 113 2881 
L 113 3319 
L 525 3319 
L 525 4141 
L 1084 4478 
L 1084 3319 
L 1650 3319 
L 1650 2881 
L 1084 2881 
L 1084 941 
Q 1084 700 1114 631 
Q 1144 563 1211 522 
Q 1278 481 1403 481 
Q 1497 481 1650 503 
z
" transform="scale(0.015625)"/>
       <path id="ArialMT-65" d="M 2694 1069 
L 3275 997 
Q 3138 488 2766 206 
Q 2394 -75 1816 -75 
Q 1088 -75 661 373 
Q 234 822 234 1631 
Q 234 2469 665 2931 
Q 1097 3394 1784 3394 
Q 2450 3394 2872 2941 
Q 3294 2488 3294 1666 
Q 3294 1616 3291 1516 
L 816 1516 
Q 847 969 1125 678 
Q 1403 388 1819 388 
Q 2128 388 2347 550 
Q 2566 713 2694 1069 
z
M 847 1978 
L 2700 1978 
Q 2663 2397 2488 2606 
Q 2219 2931 1791 2931 
Q 1403 2931 1139 2672 
Q 875 2413 847 1978 
z
" transform="scale(0.015625)"/>
       <path id="ArialMT-72" d="M 416 0 
L 416 3319 
L 922 3319 
L 922 2816 
Q 1116 3169 1280 3281 
Q 1444 3394 1641 3394 
Q 1925 3394 2219 3213 
L 2025 2691 
Q 1819 2813 1613 2813 
Q 1428 2813 1281 2702 
Q 1134 2591 1072 2394 
Q 978 2094 978 1738 
L 978 0 
L 416 0 
z
" transform="scale(0.015625)"/>
       <path id="ArialMT-73" d="M 197 991 
L 753 1078 
Q 800 744 1014 566 
Q 1228 388 1613 388 
Q 2000 388 2187 545 
Q 2375 703 2375 916 
Q 2375 1106 2209 1216 
Q 2094 1291 1634 1406 
Q 1016 1563 777 1677 
Q 538 1791 414 1992 
Q 291 2194 291 2438 
Q 291 2659 392 2848 
Q 494 3038 669 3163 
Q 800 3259 1026 3326 
Q 1253 3394 1513 3394 
Q 1903 3394 2198 3281 
Q 2494 3169 2634 2976 
Q 2775 2784 2828 2463 
L 2278 2388 
Q 2241 2644 2061 2787 
Q 1881 2931 1553 2931 
Q 1166 2931 1000 2803 
Q 834 2675 834 2503 
Q 834 2394 903 2306 
Q 972 2216 1119 2156 
Q 1203 2125 1616 2013 
Q 2213 1853 2448 1751 
Q 2684 1650 2818 1456 
Q 2953 1263 2953 975 
Q 2953 694 2789 445 
Q 2625 197 2315 61 
Q 2006 -75 1616 -75 
Q 969 -75 630 194 
Q 291 463 197 991 
z
" transform="scale(0.015625)"/>
       <path id="ArialMT-63" d="M 2588 1216 
L 3141 1144 
Q 3050 572 2676 248 
Q 2303 -75 1759 -75 
Q 1078 -75 664 370 
Q 250 816 250 1647 
Q 250 2184 428 2587 
Q 606 2991 970 3192 
Q 1334 3394 1763 3394 
Q 2303 3394 2647 3120 
Q 2991 2847 3088 2344 
L 2541 2259 
Q 2463 2594 2264 2762 
Q 2066 2931 1784 2931 
Q 1359 2931 1093 2626 
Q 828 2322 828 1663 
Q 828 994 1084 691 
Q 1341 388 1753 388 
Q 2084 388 2306 591 
Q 2528 794 2588 1216 
z
" transform="scale(0.015625)"/>
       <path id="ArialMT-69" d="M 425 3934 
L 425 4581 
L 988 4581 
L 988 3934 
L 425 3934 
z
M 425 0 
L 425 3319 
L 988 3319 
L 988 0 
L 425 0 
z
" transform="scale(0.015625)"/>
       <path id="ArialMT-6f" d="M 213 1659 
Q 213 2581 725 3025 
Q 1153 3394 1769 3394 
Q 2453 3394 2887 2945 
Q 3322 2497 3322 1706 
Q 3322 1066 3130 698 
Q 2938 331 2570 128 
Q 2203 -75 1769 -75 
Q 1072 -75 642 372 
Q 213 819 213 1659 
z
M 791 1659 
Q 791 1022 1069 705 
Q 1347 388 1769 388 
Q 2188 388 2466 706 
Q 2744 1025 2744 1678 
Q 2744 2294 2464 2611 
Q 2184 2928 1769 2928 
Q 1347 2928 1069 2612 
Q 791 2297 791 1659 
z
" transform="scale(0.015625)"/>
       <path id="ArialMT-7a" d="M 125 0 
L 125 456 
L 2238 2881 
Q 1878 2863 1603 2863 
L 250 2863 
L 250 3319 
L 2963 3319 
L 2963 2947 
L 1166 841 
L 819 456 
Q 1197 484 1528 484 
L 3063 484 
L 3063 0 
L 125 0 
z
" transform="scale(0.015625)"/>
      </defs>
      <use xlink:href="#ArialMT-49"/>
      <use xlink:href="#ArialMT-6e" transform="translate(27.783203 0)"/>
      <use xlink:href="#ArialMT-74" transform="translate(83.398438 0)"/>
      <use xlink:href="#ArialMT-65" transform="translate(111.181641 0)"/>
      <use xlink:href="#ArialMT-72" transform="translate(166.796875 0)"/>
      <use xlink:href="#ArialMT-73" transform="translate(200.097656 0)"/>
      <use xlink:href="#ArialMT-65" transform="translate(250.097656 0)"/>
      <use xlink:href="#ArialMT-63" transform="translate(305.712891 0)"/>
      <use xlink:href="#ArialMT-74" transform="translate(355.712891 0)"/>
      <use xlink:href="#ArialMT-69" transform="translate(383.496094 0)"/>
      <use xlink:href="#ArialMT-6f" transform="translate(405.712891 0)"/>
      <use xlink:href="#ArialMT-6e" transform="translate(461.328125 0)"/>
      <use xlink:href="#ArialMT-20" transform="translate(516.943359 0)"/>
      <use xlink:href="#ArialMT-73" transform="translate(544.726562 0)"/>
      <use xlink:href="#ArialMT-69" transform="translate(594.726562 0)"/>
      <use xlink:href="#ArialMT-7a" transform="translate(616.943359 0)"/>
      <use xlink:href="#ArialMT-65" transform="translate(666.943359 0)"/>
     </g>
    </g>
   </g>
   <g id="patch_14">
    <path d="M 255.058824 184.213333 
L 255.058824 42.24 
" style="fill: none; stroke: #000000; stroke-width: 0.8; stroke-linejoin: miter; stroke-linecap: square"/>
   </g>
   <g id="text_19">
    <!-- 77 -->
    <g transform="translate(260.173496 44.997152) scale(0.13 -0.13)">
     <use xlink:href="#ArialMT-37"/>
     <use xlink:href="#ArialMT-37" transform="translate(55.615234 0)"/>
    </g>
   </g>
   <g id="text_20">
    <!-- 43 -->
    <g transform="translate(284.861279 104.70146) scale(0.13 -0.13)">
     <use xlink:href="#ArialMT-34"/>
     <use xlink:href="#ArialMT-33" transform="translate(55.615234 0)"/>
    </g>
   </g>
   <g id="text_21">
    <!-- 24 -->
    <g transform="translate(309.549062 138.065632) scale(0.13 -0.13)">
     <use xlink:href="#ArialMT-32"/>
     <use xlink:href="#ArialMT-34" transform="translate(55.615234 0)"/>
    </g>
   </g>
   <g id="text_22">
    <!-- 16 -->
    <g transform="translate(334.236845 152.113705) scale(0.13 -0.13)">
     <use xlink:href="#ArialMT-31"/>
     <use xlink:href="#ArialMT-36" transform="translate(55.615234 0)"/>
    </g>
   </g>
   <g id="text_23">
    <!-- 15 -->
    <g transform="translate(358.924627 153.869714) scale(0.13 -0.13)">
     <use xlink:href="#ArialMT-31"/>
     <use xlink:href="#ArialMT-35" transform="translate(55.615234 0)"/>
    </g>
   </g>
   <g id="text_24">
    <!-- 10 -->
    <g transform="translate(383.61241 162.649759) scale(0.13 -0.13)">
     <use xlink:href="#ArialMT-31"/>
     <use xlink:href="#ArialMT-30" transform="translate(55.615234 0)"/>
    </g>
   </g>
   <g id="text_25">
    <!-- 9 -->
    <g transform="translate(411.914802 164.405768) scale(0.13 -0.13)">
     <use xlink:href="#ArialMT-39"/>
    </g>
   </g>
   <g id="text_26">
    <!-- 9 -->
    <g transform="translate(436.602585 164.405768) scale(0.13 -0.13)">
     <use xlink:href="#ArialMT-39"/>
    </g>
   </g>
   <g id="text_27">
    <!-- 5 -->
    <g transform="translate(461.290368 171.429805) scale(0.13 -0.13)">
     <use xlink:href="#ArialMT-35"/>
    </g>
   </g>
   <g id="text_28">
    <!-- 4 -->
    <g transform="translate(485.978151 173.185814) scale(0.13 -0.13)">
     <use xlink:href="#ArialMT-34"/>
    </g>
   </g>
   <g id="text_29">
    <!-- 4 -->
    <g transform="translate(510.665934 173.185814) scale(0.13 -0.13)">
     <use xlink:href="#ArialMT-34"/>
    </g>
   </g>
   <g id="text_30">
    <!-- 3 -->
    <g transform="translate(535.353716 174.941823) scale(0.13 -0.13)">
     <use xlink:href="#ArialMT-33"/>
    </g>
   </g>
   <g id="text_31">
    <!-- 3 -->
    <g transform="translate(560.041499 174.941823) scale(0.13 -0.13)">
     <use xlink:href="#ArialMT-33"/>
    </g>
   </g>
   <g id="patch_15">
    <path d="M 261.230769 184.213333 
L 273.574661 184.213333 
L 273.574661 49.000635 
L 261.230769 49.000635 
z
" clip-path="url(#p8b4e4a5533)" style="stroke: #000000; stroke-linejoin: miter"/>
   </g>
   <g id="patch_16">
    <path d="M 285.918552 184.213333 
L 298.262443 184.213333 
L 298.262443 108.704943 
L 285.918552 108.704943 
z
" clip-path="url(#p8b4e4a5533)" style="stroke: #000000; stroke-linejoin: miter"/>
   </g>
   <g id="patch_17">
    <path d="M 310.606335 184.213333 
L 322.950226 184.213333 
L 322.950226 142.069116 
L 310.606335 142.069116 
z
" clip-path="url(#p8b4e4a5533)" style="stroke: #000000; stroke-linejoin: miter"/>
   </g>
   <g id="patch_18">
    <path d="M 335.294118 184.213333 
L 347.638009 184.213333 
L 347.638009 156.117188 
L 335.294118 156.117188 
z
" clip-path="url(#p8b4e4a5533)" style="stroke: #000000; stroke-linejoin: miter"/>
   </g>
   <g id="patch_19">
    <path d="M 359.9819 184.213333 
L 372.325792 184.213333 
L 372.325792 157.873197 
L 359.9819 157.873197 
z
" clip-path="url(#p8b4e4a5533)" style="stroke: #000000; stroke-linejoin: miter"/>
   </g>
   <g id="patch_20">
    <path d="M 384.669683 184.213333 
L 397.013575 184.213333 
L 397.013575 166.653243 
L 384.669683 166.653243 
z
" clip-path="url(#p8b4e4a5533)" style="stroke: #000000; stroke-linejoin: miter"/>
   </g>
   <g id="patch_21">
    <path d="M 409.357466 184.213333 
L 421.701357 184.213333 
L 421.701357 168.409252 
L 409.357466 168.409252 
z
" clip-path="url(#p8b4e4a5533)" style="stroke: #000000; stroke-linejoin: miter"/>
   </g>
   <g id="patch_22">
    <path d="M 434.045249 184.213333 
L 446.38914 184.213333 
L 446.38914 168.409252 
L 434.045249 168.409252 
z
" clip-path="url(#p8b4e4a5533)" style="stroke: #000000; stroke-linejoin: miter"/>
   </g>
   <g id="patch_23">
    <path d="M 458.733032 184.213333 
L 471.076923 184.213333 
L 471.076923 175.433288 
L 458.733032 175.433288 
z
" clip-path="url(#p8b4e4a5533)" style="stroke: #000000; stroke-linejoin: miter"/>
   </g>
   <g id="patch_24">
    <path d="M 483.420814 184.213333 
L 495.764706 184.213333 
L 495.764706 177.189297 
L 483.420814 177.189297 
z
" clip-path="url(#p8b4e4a5533)" style="stroke: #000000; stroke-linejoin: miter"/>
   </g>
   <g id="patch_25">
    <path d="M 508.108597 184.213333 
L 520.452489 184.213333 
L 520.452489 177.189297 
L 508.108597 177.189297 
z
" clip-path="url(#p8b4e4a5533)" style="stroke: #000000; stroke-linejoin: miter"/>
   </g>
   <g id="patch_26">
    <path d="M 532.79638 184.213333 
L 545.140271 184.213333 
L 545.140271 178.945306 
L 532.79638 178.945306 
z
" clip-path="url(#p8b4e4a5533)" style="stroke: #000000; stroke-linejoin: miter"/>
   </g>
   <g id="patch_27">
    <path d="M 557.484163 184.213333 
L 569.828054 184.213333 
L 569.828054 178.945306 
L 557.484163 178.945306 
z
" clip-path="url(#p8b4e4a5533)" style="stroke: #000000; stroke-linejoin: miter"/>
   </g>
  </g>
 </g>
 <defs>
  <clipPath id="p3ba9682945">
   <rect x="80" y="197.12" width="496" height="116.16"/>
  </clipPath>
  <clipPath id="pf8c5c9afab">
   <rect x="255.058824" y="197.12" width="320.941176" height="116.16"/>
  </clipPath>
  <clipPath id="p6439d639c2">
   <rect x="80" y="197.12" width="45.848739" height="116.16"/>
  </clipPath>
  <clipPath id="p8b4e4a5533">
   <rect x="255.058824" y="42.24" width="320.941176" height="141.973333"/>
  </clipPath>
 </defs>
</svg>
